# xmcd CD database file
#
# Track frame offsets:
#	150
#	19827
#	30461
#	56121
#	66665
#	75745
#	92952
#	110972
#	128744
#	143458
#	157894
#	168960
#	184288
#	201355
#	213357
#
# Disc length: 3041 seconds
#
# Revision: 1
# Processed by: cddbd v1.5.1PL0 Copyright (c) Steve Scherf et al.
# Submitted via: CDex 1.51
#
DISCID=d80bdf0f
DTITLE=Henry Eye - Back home in my Country
DYEAR=2003
DGENRE=Country
TTITLE0=Gone Country
TTITLE1=On the road again
TTITLE2=Dixieland Delight
TTITLE3=Louisianna Saturday Night
TTITLE4=I walk the line
TTITLE5=Back home in my country
TTITLE6=God blessed Texas
TTITLE7=Take it Easy
TTITLE8=Achy Breaky Heart
TTITLE9=Good hearted Woman
TTITLE10=Chattahoochee
TTITLE11=Oh me, Oh my
TTITLE12=If tommorow never comes
TTITLE13=Ein leben lang auf Achse
TTITLE14=Kölle du bes ming Stadt am Rhing
EXTD=YEAR: 2003
EXTT0=
EXTT1=
EXTT2=
EXTT3=
EXTT4=
EXTT5=
EXTT6=
EXTT7=
EXTT8=
EXTT9=
EXTT10=
EXTT11=
EXTT12=
EXTT13=
EXTT14=
PLAYORDER=
